<svg width="24" height="24" viewBox="0 0 24 24" fill="none" xmlns="http://www.w3.org/2000/svg">
<path d="M11.9998 21.933C11.7311 21.9343 11.4659 21.8724 11.2255 21.7524C10.9851 21.6324 10.7762 21.4575 10.6158 21.242L5.55479 14.5C4.7174 13.3191 4.22087 11.9307 4.11948 10.4866C4.0181 9.0425 4.31577 7.59833 4.97995 6.31203C5.64413 5.02573 6.64923 3.94684 7.88533 3.19334C9.12143 2.43985 10.5409 2.04078 11.9886 2.03977C13.4362 2.03876 14.8563 2.43585 16.0934 3.18761C17.3306 3.93938 18.3372 5.01686 19.0032 6.30224C19.6692 7.58761 19.9688 9.03136 19.8695 10.4756C19.7701 11.9198 19.2755 13.3089 18.4398 14.491L13.3848 21.24C13.2244 21.4559 13.0154 21.6311 12.7749 21.7515C12.5343 21.8719 12.2688 21.9341 11.9998 21.933ZM11.9918 3.066C10.3016 3.06069 8.66987 3.68409 7.41379 4.815C6.15418 5.93969 5.3514 7.48775 5.15784 9.16527C4.96428 10.8428 5.39342 12.533 6.36379 13.915L11.4148 20.642C11.4825 20.7329 11.5706 20.8067 11.6721 20.8575C11.7735 20.9082 11.8854 20.9344 11.9988 20.934C12.1124 20.9342 12.2245 20.9078 12.3263 20.8572C12.428 20.8065 12.5165 20.7328 12.5848 20.642L17.6288 13.908C18.317 12.9341 18.74 11.798 18.8563 10.6112C18.9726 9.42437 18.7781 8.22772 18.292 7.1388C17.8059 6.04989 17.0449 5.10616 16.0837 4.40033C15.1225 3.69451 13.9943 3.25087 12.8098 3.113C12.5382 3.08198 12.2651 3.06629 11.9918 3.066Z" fill="#318a4f"/>
<path d="M12 12.5C11.5055 12.5 11.0222 12.3534 10.6111 12.0787C10.2 11.804 9.87952 11.4135 9.6903 10.9567C9.50108 10.4999 9.45157 9.99723 9.54804 9.51228C9.6445 9.02732 9.8826 8.58187 10.2322 8.23223C10.5819 7.8826 11.0273 7.6445 11.5123 7.54804C11.9972 7.45157 12.4999 7.50108 12.9567 7.6903C13.4135 7.87952 13.804 8.19995 14.0787 8.61108C14.3534 9.0222 14.5 9.50555 14.5 10C14.5 10.663 14.2366 11.2989 13.7678 11.7678C13.2989 12.2366 12.663 12.5 12 12.5ZM12 8.5C11.7033 8.5 11.4133 8.58797 11.1666 8.7528C10.92 8.91762 10.7277 9.15189 10.6142 9.42598C10.5007 9.70007 10.4709 10.0017 10.5288 10.2926C10.5867 10.5836 10.7296 10.8509 10.9393 11.0607C11.1491 11.2704 11.4164 11.4133 11.7074 11.4712C11.9983 11.5291 12.2999 11.4994 12.574 11.3858C12.8481 11.2723 13.0824 11.08 13.2472 10.8334C13.412 10.5867 13.5 10.2967 13.5 10C13.5 9.60218 13.342 9.22065 13.0607 8.93934C12.7794 8.65804 12.3978 8.5 12 8.5Z" fill="#318a4f"/>
</svg>
