<svg width="20" height="27" viewBox="0 0 20 27" fill="none" xmlns="http://www.w3.org/2000/svg">
<g clip-path="url(#clip0_37_133)">
<path d="M19.2854 17.0997L14.3052 14.8711C14.1121 14.7875 13.9013 14.7534 13.6917 14.7718C13.4821 14.7903 13.2805 14.8606 13.1049 14.9766C13.0909 14.9855 13.0775 14.9953 13.0649 15.0061L10.4492 17.2357C10.391 17.2712 10.325 17.2918 10.2569 17.2957C10.1888 17.2995 10.1208 17.2865 10.059 17.2579C8.34618 16.431 6.57325 14.6718 5.74638 12.979C5.71713 12.9176 5.70355 12.8499 5.70687 12.782C5.71018 12.7141 5.73028 12.6481 5.76536 12.5898L8.0013 9.93094C8.01185 9.91829 8.02134 9.90457 8.03083 9.89086C8.14642 9.71558 8.21657 9.51429 8.23499 9.30513C8.2534 9.09597 8.21948 8.88552 8.1363 8.69274L5.90353 3.72094C5.79574 3.46913 5.60916 3.25909 5.37182 3.12235C5.13448 2.98561 4.85919 2.92956 4.58728 2.96262C3.26003 3.13762 2.04186 3.78977 1.16031 4.79729C0.278761 5.8048 -0.205888 7.09877 -0.203113 8.4375C-0.203113 16.5797 6.42032 23.2031 14.5625 23.2031C15.9012 23.2059 17.1952 22.7213 18.2027 21.8397C19.2102 20.9582 19.8624 19.74 20.0374 18.4127C20.0702 18.1421 20.0147 17.868 19.8792 17.6314C19.7437 17.3948 19.5355 17.2083 19.2854 17.0997ZM19.2031 18.3073C19.0542 19.4313 18.501 20.4626 17.6469 21.2084C16.7928 21.9541 15.6964 22.3633 14.5625 22.3594C6.8865 22.3594 0.640637 16.1135 0.640637 8.4375C0.636709 7.30366 1.04588 6.2072 1.79165 5.35312C2.53741 4.49904 3.56872 3.94581 4.69275 3.79688C4.7096 3.79583 4.72651 3.79583 4.74337 3.79688C4.8266 3.79759 4.90776 3.8229 4.97663 3.86963C5.04551 3.91636 5.09902 3.98242 5.13044 4.0595L7.35689 9.03129C7.38286 9.09206 7.3942 9.15808 7.38999 9.22403C7.38578 9.28998 7.36613 9.35402 7.33263 9.41098L5.09775 12.0688C5.0872 12.0825 5.07665 12.0952 5.06716 12.1099C4.94809 12.292 4.87797 12.5017 4.86356 12.7188C4.84915 12.9358 4.89094 13.153 4.98489 13.3492C5.90142 15.2255 7.79142 17.1018 9.6888 18.0183C9.88636 18.1116 10.1047 18.1522 10.3226 18.1362C10.5405 18.1201 10.7506 18.0479 10.9323 17.9265L10.9713 17.897L13.5901 15.6695C13.6461 15.6353 13.7095 15.6148 13.7749 15.6099C13.8404 15.6049 13.9061 15.6156 13.9666 15.641L18.9458 17.8727C19.0298 17.9077 19.1003 17.9689 19.1467 18.0472C19.193 18.1256 19.2129 18.2168 19.2031 18.3073Z" fill="#28B156"/>
</g>
<defs>
<clipPath id="clip0_37_133">
<rect width="20" height="27" fill="white"/>
</clipPath>
</defs>
</svg>
